<?xml version="1.0" encoding="iso-8859-1"?>
<!-- Uploaded to: SVG Repo, www.svgrepo.com, Generator: SVG Repo Mixer Tools -->
<svg height="800px" width="800px" version="1.1" id="Layer_1" xmlns="http://www.w3.org/2000/svg" xmlns:xlink="http://www.w3.org/1999/xlink" 
	 viewBox="0 0 511.836 511.836" xml:space="preserve">
<path style="fill:#FECD57;" d="M462.356,206.421c0,114.013-92.426,206.422-206.438,206.422
	c-114.013,0-206.438-92.409-206.438-206.422C49.48,92.409,141.905,0,255.918,0C369.93,0,462.356,92.409,462.356,206.421z"/>
<path style="fill:#8CC153;" d="M144.076,168.698c0,0-5.17,81.209,32.896,120.198c23.353,23.883,61.622,24.352,85.553,1.062l0,0
	c23.852-23.368,24.273-61.654,0.938-85.537C225.38,165.434,144.076,168.698,144.076,168.698z"/>
<path style="fill:#79AA41;" d="M256.448,279.665c-3.717-5.562-9.153-12.746-16.136-21.368
	c-11.715-14.45-23.727-27.898-24.227-28.461l0,0c-1.827-2.046-4.421-3.39-7.357-3.546c-5.873-0.328-10.918,4.17-11.246,10.044
	c-0.172,2.937,0.875,5.67,2.702,7.701l0,0c18.854,21.104,40.394,47.908,42.409,54.187c-0.266-0.796-0.547-3.702,1.405-6.561
	l17.636,11.981C267.102,295.613,260.697,286.022,256.448,279.665z"/>
<path style="fill:#A0D468;" d="M385.16,127.945c0,0-104.344,8.153-147.05,63.715c-26.195,34.052-19.838,82.865,14.152,109.107l0,0
	c34.083,26.117,82.912,19.729,109.092-14.34C404.076,230.882,385.16,127.945,385.16,127.945z"/>
<path style="fill:#8CC153;" d="M328.083,209.358c-0.968-5.811-6.466-9.731-12.277-8.748c-1.593,0.266-3.03,0.875-4.265,1.734v-0.016
	c-1.14,0.781-27.929,19.369-51.438,52.859c-13.901,19.791-23.805,40.738-29.413,62.263c-7.044,27.038-7.294,54.952-0.733,82.959
	l20.759-4.858c-5.732-24.461-5.561-48.797,0.516-72.321c4.889-18.979,13.605-37.551,25.914-55.218
	c21.29-30.538,46.22-47.938,46.47-48.11l0,0C326.912,217.621,328.786,213.575,328.083,209.358z"/>
<polygon style="fill:#CCD1D9;" points="319.898,484.431 192.03,505.799 192.03,405.221 319.898,389.287 "/>
<path style="fill:#434A54;" d="M266.523,500.113c0.594,5.857-3.686,11.09-9.543,11.668c-5.874,0.594-11.091-3.686-11.669-9.559
	c-0.594-5.858,3.687-11.075,9.544-11.669C260.729,489.976,265.945,494.256,266.523,500.113z"/>
<g>
	<path style="fill:#E6E9ED;" d="M317.602,468.67l-126.445,18.869c-0.375,0.062-0.75,0.125-1.125,0.219
		c-5.717,1.438-9.169,7.248-7.731,12.949c1.358,5.373,6.56,8.747,11.934,7.936l126.462-18.886c0.375-0.047,0.75-0.124,1.124-0.218
		c5.702-1.438,9.169-7.232,7.717-12.949C328.177,471.216,322.96,467.842,317.602,468.67z"/>
	<path style="fill:#E6E9ED;" d="M317.602,426.48l-126.461,18.869c-0.359,0.062-0.734,0.125-1.109,0.219
		c-5.717,1.452-9.169,7.248-7.731,12.949c1.358,5.374,6.56,8.763,11.934,7.935l126.462-18.869c0.375-0.062,0.75-0.125,1.124-0.219
		c5.702-1.452,9.169-7.248,7.717-12.965C328.177,429.041,322.976,425.651,317.602,426.48z"/>
	<path style="fill:#E6E9ED;" d="M194.233,424.277l126.462-18.885c0.375-0.047,0.75-0.125,1.124-0.219
		c5.702-1.453,9.169-7.248,7.717-12.949c-1.359-5.373-6.561-8.748-11.935-7.936L191.14,403.173
		c-0.359,0.047-0.734,0.125-1.109,0.219c-5.717,1.438-9.169,7.232-7.731,12.949C183.658,421.715,188.859,425.09,194.233,424.277z"/>
</g>
</svg>